<?xml version="1.0" encoding="UTF-8"?>
<svg xmlns="http://www.w3.org/2000/svg" xmlns:xlink="http://www.w3.org/1999/xlink" width="0" height="0">
<symbol id="arrowBody_svg" width="279" height="212" viewBox="0 0 279 212" fill="none"><path d="M204.708 35.7815C212.364 25.8937 222.155 17.8297 233.009 12.4945C242.254 7.92608 252.622 5.19804 263.208 4.4837L262.093 0.54514C251.139 1.42588 240.711 4.23331 231.24 8.88621C219.843 14.4998 209.579 22.9466 201.541 33.3162C193.502 43.6857 187.914 55.748 185.341 68.2018C184.612 71.708 184.135 75.2257 183.885 78.7412C169.391 89.7558 158.264 104.237 148.396 118.404C145.988 121.845 143.589 125.388 141.278 128.803C132.796 141.269 124.036 154.147 113.578 165.201C101.778 177.674 87.227 188.123 71.4934 195.421C55.3206 202.926 38.4426 207.061 21.3205 207.697C14.295 207.942 7.24628 207.593 0.344206 206.663L1.52462 210.832C8.17481 211.605 14.7959 211.91 21.4676 211.66C31.8989 211.28 42.2617 209.633 52.4026 206.761C59.432 204.771 66.3751 202.183 73.1796 199.032C89.3524 191.526 104.334 180.768 116.486 167.927C127.151 156.648 136.018 143.636 144.569 131.046C146.88 127.632 149.285 124.108 151.678 120.691C160.767 107.658 170.891 94.3947 183.709 83.9794C183.686 97.3089 187.142 110.027 193.803 120.365C198.735 128.037 205.602 134.414 213.654 138.817C222.001 143.385 231.061 145.489 239.872 144.883C248.891 144.28 257.77 140.542 264.913 134.41C272.235 128.104 276.962 119.813 278.26 111.062C279.694 101.4 276.995 91.2068 270.657 82.376C264.663 74.0288 255.766 67.5203 246.223 64.5154C236.979 61.6127 226.941 61.2587 216.445 63.4626C206.945 65.4467 197.38 69.5454 188.782 75.3003C188.593 75.4369 188.398 75.5544 188.208 75.691C188.454 73.4838 188.822 71.2631 189.276 69.0591C191.717 57.1617 197.051 45.6692 204.708 35.7815ZM190.982 78.5997C199.163 73.129 208.25 69.2486 217.259 67.362C227.091 65.3046 236.435 65.6266 245.019 68.322C253.74 71.0616 261.903 77.0308 267.391 84.691C273.117 92.6783 275.567 101.842 274.294 110.462C271.949 126.359 256.689 139.727 239.574 140.9C231.536 141.453 223.227 139.51 215.545 135.314C208.08 131.223 201.721 125.324 197.137 118.217C190.375 107.742 187.142 94.5665 187.763 80.86C188.823 80.0617 189.9 79.3211 190.982 78.5997Z" fill="#ECECEC"/></symbol><symbol id="arrowGroup_svg" width="407" height="391" viewBox="0 0 407 391" fill="none"><path d="M270.708 138.781C278.364 128.894 288.155 120.83 299.009 115.495C308.254 110.926 318.622 108.198 329.208 107.484L328.093 103.545C317.139 104.426 306.711 107.233 297.24 111.886C285.843 117.5 275.579 125.947 267.541 136.316C259.502 146.686 253.914 158.748 251.341 171.202C250.612 174.708 250.135 178.226 249.885 181.741C235.391 192.756 224.264 207.237 214.396 221.404C211.988 224.845 209.589 228.388 207.278 231.803C198.796 244.269 190.036 257.147 179.578 268.201C167.778 280.674 153.227 291.123 137.493 298.421C121.321 305.926 104.443 310.061 87.3205 310.697C80.295 310.942 73.2463 310.593 66.3442 309.663L67.5246 313.832C74.1748 314.605 80.7959 314.91 87.4676 314.66C97.8989 314.28 108.262 312.633 118.403 309.761C125.432 307.771 132.375 305.183 139.18 302.032C155.352 294.526 170.334 283.768 182.486 270.927C193.151 259.648 202.018 246.636 210.569 234.046C212.88 230.632 215.285 227.108 217.678 223.691C226.767 210.658 236.891 197.395 249.709 186.979C249.686 200.309 253.142 213.027 259.803 223.365C264.735 231.037 271.602 237.414 279.654 241.817C288.001 246.385 297.061 248.489 305.872 247.883C314.891 247.28 323.77 243.542 330.913 237.41C338.235 231.104 342.962 222.813 344.26 214.062C345.694 204.4 342.995 194.207 336.657 185.376C330.663 177.029 321.766 170.52 312.223 167.515C302.979 164.613 292.941 164.259 282.445 166.463C272.945 168.447 263.38 172.545 254.782 178.3C254.593 178.437 254.398 178.554 254.208 178.691C254.454 176.484 254.822 174.263 255.276 172.059C257.717 160.162 263.051 148.669 270.708 138.781ZM256.982 181.6C265.163 176.129 274.25 172.249 283.259 170.362C293.091 168.305 302.435 168.627 311.019 171.322C319.74 174.062 327.903 180.031 333.391 187.691C339.117 195.678 341.567 204.842 340.294 213.462C337.949 229.359 322.689 242.727 305.574 243.9C297.536 244.453 289.227 242.51 281.545 238.314C274.08 234.223 267.721 228.324 263.137 221.217C256.375 210.742 253.142 197.567 253.763 183.86C254.823 183.062 255.9 182.321 256.982 181.6Z" fill="#ECECEC"/><path d="M367.309 102.907L319.442 83.8698L324.33 98.3691L354.379 102.536L326.135 103.722L326.14 103.736L326.133 103.72L316.516 111.495L328.875 111.85L332.348 122.151L367.309 102.907Z" fill="#ECECEC"/></symbol><symbol id="arrowHead_svg" width="52" height="40" viewBox="0 0 52 40" fill="none"><path d="M51.3093 19.9074L3.44212 0.869754L8.3303 15.3691L38.3789 19.5355L10.1349 20.7223L10.1396 20.7362L10.133 20.7199L0.515983 28.4947L12.8752 28.8503L16.3477 39.1508L51.3093 19.9074Z" fill="#ECECEC"/></symbol><symbol id="Ellipse 3" width="60" height="60" viewBox="0 0 60 60" fill="none"><circle cx="29.9999" cy="30" r="30" fill="#FFC517"/></symbol><symbol id="Ellipse 4" width="39" height="39" viewBox="0 0 39 39" fill="none"><circle cx="19.4999" cy="19.5" r="19.5" fill="#FFC517"/></symbol><symbol id="Ellipse 5" width="39" height="39" viewBox="0 0 39 39" fill="none"><circle cx="19.5" cy="19.5" r="19.5" fill="#ECB63B" fill-opacity="0.66"/></symbol><symbol id="Ellipse 6" width="39" height="39" viewBox="0 0 39 39" fill="none"><circle cx="19.4999" cy="19.5" r="19.5" fill="#2BB673"/></symbol><symbol id="Ellipse 7" width="39" height="39" viewBox="0 0 39 39" fill="none"><circle cx="19.5" cy="19.5" r="19.5" fill="#BF6DFF"/></symbol><symbol id="Ellipse 8" width="39" height="39" viewBox="0 0 39 39" fill="none"><circle cx="19.4999" cy="19.5" r="19.5" fill="#BF6DFF"/></symbol><symbol id="Polygon 1" width="49" height="39" viewBox="0 0 49 39" fill="none"><path d="M24.4999 0L48.3156 39H0.684179L24.4999 0Z" fill="#FFC517"/></symbol><symbol id="Polygon 2" width="47" height="43" viewBox="0 0 47 43" fill="none"><path d="M46.2215 2.36125L23.7166 42.1321L0.562419 0.507176L46.2215 2.36125Z" fill="#FF5E00"/></symbol><symbol id="purplePuddle_svg" width="757" height="647" viewBox="0 0 757 647" fill="none"><path fill-rule="evenodd" clip-rule="evenodd" d="M293.778 9.87338C379.344 -6.87488 464.353 -3.42788 544.516 30.8696C629.05 67.0372 716.314 116.414 746.109 203.402C775.761 289.973 735.646 381.396 692.152 461.904C651.215 537.676 595.041 607.461 513.249 634.42C432.773 660.945 346.347 639.575 271.054 600.7C198.215 563.091 150.759 498.242 110.835 426.643C58.8716 333.455 -31.3981 232.899 11.4862 135.202C54.5059 37.1976 188.743 30.4324 293.778 9.87338Z" fill="#4C40F7"/></symbol><symbol id="Rectangle 9" width="60" height="42" viewBox="0 0 60 42" fill="none"><rect x="6.51013" y="0.429443" width="61" height="11.9871" transform="rotate(30.4751 6.51013 0.429443)" fill="#2F50FF"/></symbol><symbol id="Rectangle 10" width="55" height="49" viewBox="0 0 55 49" fill="none"><rect x="54.5673" y="9.66455" width="61" height="11.9871" transform="rotate(140.093 54.5673 9.66455)" fill="#2F50FF"/></symbol><symbol id="yellowPuddle_svg" width="600" height="535" viewBox="0 0 600 535" fill="none"><path fill-rule="evenodd" clip-rule="evenodd" d="M220.648 59.3442C298.115 28.4202 381.165 -19.0371 456.58 9.29855C536.503 39.3274 574.339 121.131 591.909 198.836C609.088 274.812 600.479 357.671 550.256 423.596C502.332 486.506 420.364 517.747 338.857 531.009C265.287 542.979 193.67 525.843 131.614 491.711C70.7211 458.219 16.6064 410.841 3.18464 346.382C-9.87445 283.665 22.6678 220.395 63.8123 166.087C102.319 115.261 158.871 84.0049 220.648 59.3442Z" fill="#FFCC00"/></symbol></svg>